<?xml version="1.0" encoding="UTF-8"?>
<svg id="Layer_1" xmlns="http://www.w3.org/2000/svg" version="1.1" viewBox="0 0 650.51 155.46">
  <!-- Generator: Adobe Illustrator 30.2.1, SVG Export Plug-In . SVG Version: 2.1.1 Build 1)  -->
  <defs>
    <style>
      .st0 {
        fill: #81000C;
      }

      .st1 {
        fill: #F00013;
      }
    </style>
  </defs>
  <path class="st0" d="M192.69,14.78c-2.56.52-4.22,3.03-3.7,5.59s3.03,4.22,5.59,3.7,4.22-3.03,3.7-5.59c-.52-2.56-3.03-4.22-5.59-3.7ZM194.44,23.39c-2.19.44-4.33-.98-4.77-3.16-.44-2.19.98-4.33,3.16-4.77,2.19-.44,4.33.98,4.77,3.16.44,2.19-.98,4.33-3.16,4.77ZM195.84,20.15c-.04-.19-.09-.34-.17-.45s-.15-.2-.24-.27-.18-.11-.27-.12-.17-.03-.25-.02h0s.1-.07.18-.13c.08-.06.16-.14.23-.25.07-.11.13-.25.17-.41s.03-.36-.01-.58c-.08-.4-.28-.69-.6-.86-.32-.17-.74-.2-1.28-.1l-2.33.47.96,4.75.85-.17-.4-1.96,1.26-.25c.2-.04.36-.05.5-.02.14.03.25.08.35.17.09.09.17.21.23.36s.11.34.16.56c.02.12.05.23.09.36.04.12.1.23.18.32l.92-.19c-.11-.08-.21-.23-.3-.45-.09-.22-.16-.47-.22-.75h0ZM194.55,18.82c-.12.16-.31.26-.58.32l-1.4.28-.3-1.48,1.39-.28c.11-.02.22-.04.32-.04.11,0,.2.01.3.05s.17.1.23.18.11.2.14.35c.05.25.02.46-.09.61Z"/>
  <g>
    <path class="st1" d="M98.37,85.25c-1.66-3.06-3.01-5.13-4.06-6.22-1.05-1.09-2.27-1.64-3.67-1.64-2.36,0-4.06,2.31-5.11,6.94-.7,3.06-1.22,7.1-1.57,12.12-.35,5.02-.52,10.55-.52,16.57,0,5.15.17,9.54.52,13.17.35,3.62.87,6.55,1.57,8.78.7,2.23,1.64,3.84,2.82,4.85,1.18,1,2.64,1.51,4.39,1.51,1.31,0,2.53-.33,3.67-.98,1.13-.65,2.01-1.55,2.62-2.69.61-1.13,1.03-2.42,1.25-3.86.22-1.44.37-3.47.46-6.09.09-1.83.15-3.3.2-4.39.04-1.09.11-1.97.2-2.62.09-.65.17-1.16.26-1.51.09-.35.22-.74.39-1.18.61-1.92,2.1-2.88,4.45-2.88,2.53,0,4.58,1.33,6.16,4,1.57,2.66,2.36,6.35,2.36,11.07,0,7.95-2.14,14.15-6.42,18.6-4.28,4.45-10.13,6.68-17.55,6.68-5.07,0-9.76-1.27-14.08-3.8-4.32-2.53-7.92-6.16-10.81-10.87-2.01-3.23-3.49-6.81-4.45-10.74-.96-3.93-1.44-8.38-1.44-13.36,0-6.9.79-13.47,2.36-19.71,1.57-6.24,3.71-11.72,6.42-16.44,2.71-4.72,5.83-8.47,9.37-11.27,3.54-2.79,7.27-4.19,11.2-4.19.96,0,1.92.07,2.88.2.96.13,1.96.28,3.01.46.44.09.83.15,1.18.2.35.05.61.07.79.07.7,0,1.79-.26,3.28-.79.79-.35,1.62-.52,2.49-.52,2.1,0,3.93,1.96,5.5,5.89.35.96.76,2.34,1.25,4.13.48,1.79.94,3.67,1.38,5.63.44,1.97.81,3.8,1.11,5.5.31,1.7.46,2.99.46,3.86,0,1.66-.5,3.04-1.51,4.13-1,1.09-2.25,1.64-3.73,1.64-1.4,0-2.6-.48-3.6-1.44-1-.96-2.21-2.71-3.6-5.24l-1.83-3.54Z"/>
    <path class="st1" d="M147.36,65.08c10.39,0,18.38,5.81,23.97,17.42,2.27,4.45,4,9.39,5.17,14.8,1.18,5.42,1.77,10.87,1.77,16.37,0,6.55-.65,12.47-1.96,17.75-1.31,5.29-3.14,9.54-5.5,12.77-5.68,7.51-13.58,11.27-23.71,11.27-5.76,0-10.83-1.2-15.2-3.6-4.37-2.4-7.91-5.96-10.61-10.68-1.75-3.06-3.1-7.03-4.06-11.92-.96-4.89-1.44-10.09-1.44-15.59,0-6.37.85-12.77,2.55-19.19s4-11.9,6.88-16.44c5.33-8.65,12.71-12.97,22.14-12.97ZM146.96,77.65c-1.49,0-2.71.48-3.67,1.44s-1.73,2.69-2.29,5.17c-.57,2.49-.96,5.83-1.18,10.02-.22,4.19-.33,9.56-.33,16.11,0,5.85.11,11.2.33,16.05.22,4.85.59,8.32,1.11,10.41.35,1.75,1.07,3.17,2.16,4.26,1.09,1.09,2.33,1.64,3.73,1.64,1.57,0,2.92-.54,4.06-1.64,1.13-1.09,1.88-2.51,2.23-4.26.17-.96.35-2.34.52-4.13.17-1.79.33-3.82.46-6.09.13-2.27.24-4.72.33-7.34.09-2.62.13-5.24.13-7.86,0-6.81-.11-12.42-.33-16.83-.22-4.41-.61-7.86-1.18-10.35-.57-2.49-1.33-4.21-2.29-5.17-.96-.96-2.23-1.44-3.8-1.44Z"/>
    <path class="st1" d="M206.96,136.6v4.06c0,1.14.11,2.03.33,2.69.22.65.68,1.38,1.38,2.16,1.13,1.31,1.79,2.14,1.96,2.49.17.35.26.87.26,1.57,0,2.8-1.88,4.19-5.63,4.19h-17.95c-3.76,0-5.63-1.4-5.63-4.19,0-.7.09-1.22.26-1.57.17-.35.83-1.18,1.96-2.49.7-.79,1.16-1.51,1.38-2.16.22-.66.33-1.55.33-2.69v-61.18c0-1.13-.11-2.03-.33-2.69-.22-.66-.68-1.33-1.38-2.03-1.14-1.31-1.79-2.16-1.96-2.55-.18-.39-.26-.94-.26-1.64,0-3.23,3.01-4.85,9.04-4.85,4.28,0,8.08.15,11.4.46,3.32.31,6.35.79,9.1,1.44s5.26,1.55,7.53,2.69c2.27,1.14,4.45,2.49,6.55,4.06,9.52,7.16,14.28,16.64,14.28,28.43,0,5.76-1.11,10.68-3.34,14.74-2.23,4.06-5.48,7.18-9.76,9.37-1.22.61-2.31,1.09-3.27,1.44-.96.35-2.03.63-3.21.85-1.18.22-2.6.37-4.26.46-1.66.09-3.8.18-6.42.26-.96,0-1.59.24-1.9.72-.31.48-.46,1.51-.46,3.08v2.88ZM206.96,111.06c0,2.62.04,4.24.13,4.85.09.61.31,1.14.66,1.57.61.87,1.53,1.31,2.75,1.31,2.36,0,4.17-1.38,5.44-4.13,1.26-2.75,1.9-6.75,1.9-11.99,0-7.42-.79-13.25-2.36-17.49-1.57-4.23-3.71-6.35-6.42-6.35-.87,0-1.44.37-1.7,1.11-.26.74-.39,2.29-.39,4.65v26.46Z"/>
    <path class="st1" d="M276.91,136.6v4.06c0,1.14.11,2.03.33,2.69.22.65.68,1.38,1.38,2.16,1.13,1.31,1.79,2.14,1.96,2.49.17.35.26.87.26,1.57,0,2.8-1.88,4.19-5.63,4.19h-17.68c-3.76,0-5.63-1.4-5.63-4.19,0-.7.09-1.22.26-1.57.17-.35.83-1.18,1.96-2.49.7-.79,1.16-1.51,1.38-2.16.22-.66.33-1.55.33-2.69v-19.65l-13.75-39.3c-.44-1.22-.81-2.2-1.11-2.95-.31-.74-.61-1.38-.92-1.9-.31-.52-.66-.98-1.05-1.38s-.9-.85-1.51-1.38c-1.31-1.05-1.96-2.23-1.96-3.54,0-2.79,2.18-4.19,6.55-4.19h15.2c2.27,0,3.88.31,4.85.92.96.61,1.44,1.62,1.44,3.01,0,.61-.07,1.05-.2,1.31-.13.26-.59,1-1.38,2.23-.35.61-.52,1.27-.52,1.97,0,.52.04.98.13,1.38.09.39.48,1.46,1.18,3.21l6.42,18.47,5.5-16.51c.44-1.31.76-2.31.98-3.01.22-.7.39-1.22.52-1.57.13-.35.2-.59.2-.72v-.46c0-.52-.11-.94-.33-1.24-.22-.31-.9-1.16-2.03-2.55-.44-.7-.66-1.44-.66-2.23,0-1.48.61-2.62,1.83-3.41.52-.44,1-.68,1.44-.72.44-.04,1.44-.07,3.01-.07h10.48c2.44,0,4.02.22,4.72.66.52.26.98.74,1.38,1.44.39.7.59,1.4.59,2.1,0,.79-.2,1.49-.59,2.1-.39.61-1.29,1.49-2.69,2.62-.79.7-1.31,1.24-1.57,1.64s-.57,1.07-.92,2.03l-1.18,3.41-12.97,38.64v15.59Z"/>
    <path class="st1" d="M346.6,95.34c1.66,1.05,3.08,1.96,4.26,2.75,1.18.79,2.25,1.57,3.21,2.36.96.79,1.83,1.57,2.62,2.36.79.79,1.62,1.7,2.49,2.75,2.79,3.32,4.78,6.6,5.96,9.83,1.18,3.23,1.77,6.81,1.77,10.74,0,4.19-.66,8.08-1.96,11.66-1.31,3.58-3.12,6.68-5.44,9.3-2.31,2.62-5.07,4.67-8.25,6.16-3.19,1.48-6.66,2.23-10.41,2.23-1.49,0-3.1-.09-4.85-.26-1.75-.18-3.49-.48-5.24-.92-2.18-.44-3.49-.65-3.93-.65-.18,0-.44.02-.79.07-.35.04-.79.11-1.31.2-.44.09-.83.13-1.18.13h-1.18c-1.75,0-3.12-.66-4.13-1.97-1-1.31-1.77-3.45-2.29-6.42-.87-4.8-1.51-8.52-1.9-11.13-.39-2.62-.59-4.41-.59-5.37,0-1.75.41-3.1,1.24-4.06.83-.96,1.94-1.44,3.34-1.44.79,0,1.42.09,1.9.26.48.18.98.55,1.51,1.11.52.57,1.09,1.44,1.7,2.62.61,1.18,1.4,2.77,2.36,4.78,1.83,3.93,3.62,6.7,5.37,8.32,1.75,1.62,3.8,2.42,6.16,2.42s4.37-1.16,5.76-3.47c1.4-2.31,2.1-5.44,2.1-9.37,0-4.98-1.4-8.99-4.19-12.05-.35-.35-.66-.66-.92-.92-.26-.26-.59-.57-.98-.92-.39-.35-.92-.76-1.57-1.24-.65-.48-1.59-1.16-2.82-2.03l-2.88-2.1c-2.62-2.01-4.85-3.91-6.68-5.7-1.83-1.79-3.3-3.56-4.39-5.31-1.09-1.75-1.88-3.6-2.36-5.57-.48-1.96-.72-4.13-.72-6.48,0-3.23.52-6.24,1.57-9.04,1.05-2.79,2.51-5.22,4.39-7.27,1.88-2.05,4.06-3.67,6.55-4.85,2.49-1.18,5.17-1.77,8.06-1.77.7,0,1.53.07,2.49.2.96.13,2.05.28,3.27.46.96.18,1.85.31,2.69.39.83.09,1.46.13,1.9.13h1.18c.35,0,.74-.09,1.18-.26,1.13-.26,1.96-.39,2.49-.39.7-.09,1.42.2,2.16.85.74.65,1.33,1.51,1.77,2.55.35.96.74,2.27,1.18,3.93.44,1.66.83,3.43,1.18,5.31.35,1.88.66,3.69.92,5.44.26,1.75.39,3.14.39,4.19,0,1.66-.44,3.01-1.31,4.06-.87,1.05-1.96,1.57-3.27,1.57-.7,0-1.31-.11-1.83-.33-.52-.22-1.05-.61-1.57-1.18-.52-.57-1.09-1.35-1.7-2.36-.61-1-1.35-2.29-2.23-3.86l-1.57-2.88c-1.4-2.44-2.51-4.04-3.34-4.78-.83-.74-1.99-1.11-3.47-1.11-1.75,0-3.14.59-4.19,1.77s-1.57,2.69-1.57,4.52.54,3.56,1.64,4.91c1.09,1.35,3.38,3.08,6.88,5.17l3.41,1.97Z"/>
    <path class="st1" d="M405.16,136.6v4.06c0,1.14.11,2.03.33,2.69.22.65.68,1.33,1.38,2.03,1.13,1.31,1.79,2.16,1.96,2.55.17.39.26.94.26,1.64,0,2.8-1.88,4.19-5.63,4.19h-17.82c-3.76,0-5.63-1.4-5.63-4.19,0-.7.09-1.24.26-1.64.17-.39.83-1.24,1.96-2.55.7-.7,1.16-1.38,1.38-2.03.22-.66.33-1.55.33-2.69v-54.89c0-3.14-.11-5.17-.33-6.09-.22-.92-.72-1.38-1.51-1.38-1.05,0-2.18.81-3.41,2.42-1.22,1.62-2.97,4.74-5.24,9.37-1.31,2.71-3.01,4.06-5.11,4.06-1.4,0-2.47-.52-3.21-1.57-.74-1.05-1.11-2.44-1.11-4.19,0-1.05.09-2.34.26-3.86.18-1.53.44-3.12.79-4.78.35-1.66.72-3.32,1.11-4.98.39-1.66.81-3.14,1.25-4.45.7-1.92,1.42-3.27,2.16-4.06.74-.79,1.68-1.18,2.82-1.18.52,0,.96.04,1.31.13.35.09,1.31.39,2.88.92.52.09,1,.13,1.44.13s1.62.04,3.54.13h29.15c.66,0,1.22-.04,1.7-.13.48-.09.98-.2,1.51-.33.52-.13,1.22-.33,2.1-.59.87-.17,1.48-.26,1.83-.26,1.57,0,2.84.65,3.8,1.96.96,1.31,1.79,3.49,2.49,6.55,1.57,6.81,2.36,12.01,2.36,15.59,0,3.93-1.53,5.9-4.58,5.9-1.75,0-3.23-.87-4.45-2.62-.09-.09-.18-.2-.26-.33-.09-.13-.24-.41-.46-.85-.22-.44-.55-1.07-.98-1.9-.44-.83-1.05-1.99-1.83-3.47-1.49-2.79-2.73-4.76-3.73-5.89-1-1.13-1.99-1.7-2.95-1.7-.87,0-1.53.61-1.96,1.83v.46c0,.13-.02.37-.07.72-.04.35-.07.87-.07,1.57v53.71Z"/>
    <path class="st1" d="M481.26,133.85c0,4.11-.42,7.34-1.25,9.69-.83,2.36-2.25,4.45-4.26,6.29-2.18,1.92-4.89,3.34-8.12,4.26-3.23.92-7.21,1.38-11.92,1.38-11.35,0-18.91-2.79-22.66-8.38-1.14-1.48-1.92-3.41-2.36-5.76-.44-2.36-.65-5.54-.65-9.56v-52.27c0-1.13-.11-2.03-.33-2.69-.22-.66-.68-1.38-1.38-2.16-1.14-1.31-1.79-2.14-1.96-2.49-.18-.35-.26-.87-.26-1.57,0-2.79,1.88-4.19,5.63-4.19h17.95c3.67,0,5.5,1.4,5.5,4.19,0,.7-.09,1.22-.26,1.57-.18.35-.83,1.18-1.96,2.49-.61.79-1.03,1.51-1.24,2.16-.22.65-.33,1.55-.33,2.69v54.69c0,1.09.02,1.92.07,2.49.04.57.11,1.01.2,1.31.09.31.22.59.39.85.87,2.45,3.01,3.67,6.42,3.67,3.23,0,5.33-1.31,6.29-3.93.26-.52.46-1.61.59-3.27.13-1.66.2-3.49.2-5.5v-50.3c0-1.13-.11-2.03-.33-2.69-.22-.66-.63-1.38-1.24-2.16-1.14-1.31-1.79-2.14-1.96-2.49-.18-.35-.26-.87-.26-1.57,0-2.79,1.83-4.19,5.5-4.19h12.31c3.75,0,5.63,1.4,5.63,4.19,0,.7-.09,1.22-.26,1.57-.18.35-.83,1.18-1.96,2.49-.7.79-1.16,1.51-1.38,2.16-.22.65-.33,1.55-.33,2.69v54.36Z"/>
    <path class="st1" d="M495.02,153.76c-3.76,0-5.63-1.4-5.63-4.19,0-.7.09-1.22.26-1.57.17-.35.83-1.18,1.96-2.49.7-.79,1.16-1.51,1.38-2.16.22-.66.33-1.55.33-2.69v-61.18c0-1.13-.11-2.03-.33-2.69-.22-.66-.68-1.38-1.38-2.16-1.14-1.31-1.79-2.14-1.96-2.49-.18-.35-.26-.87-.26-1.57,0-2.36,1.48-3.8,4.45-4.32,1.05-.17,2.55-.35,4.52-.52,1.96-.17,3.78-.26,5.44-.26,6.29,0,11.86.92,16.7,2.75,4.85,1.83,9.5,4.72,13.95,8.65,10.48,9.43,15.72,21.83,15.72,37.2,0,8.47-1.49,15.7-4.45,21.68-2.97,5.98-7.25,10.5-12.84,13.56-1.49.79-3.06,1.46-4.72,2.03-1.66.57-3.47,1.03-5.44,1.38-1.96.35-4.17.61-6.62.79-2.45.18-5.24.26-8.38.26h-12.71ZM514.67,134.5c0,3.06.22,5.04.66,5.96.44.92,1.4,1.38,2.88,1.38,2.79,0,4.93-1.99,6.42-5.96,1.48-3.97,2.23-9.8,2.23-17.49,0-5.5-.26-10.61-.79-15.33-.52-4.72-1.24-8.84-2.16-12.38-.92-3.54-1.96-6.31-3.14-8.32-1.18-2.01-2.47-3.01-3.87-3.01-1.05,0-1.68.39-1.9,1.18-.22.79-.33,2.88-.33,6.29v47.68Z"/>
    <path class="st1" d="M580.03,136.6v4.06c0,1.14.11,2.03.33,2.69.22.65.67,1.38,1.38,2.16,1.13,1.31,1.79,2.14,1.96,2.49.17.35.26.87.26,1.57,0,2.8-1.88,4.19-5.63,4.19h-18.21c-3.76,0-5.63-1.4-5.63-4.19,0-.7.09-1.22.26-1.57.17-.35.83-1.18,1.96-2.49.7-.79,1.16-1.51,1.38-2.16.22-.66.33-1.55.33-2.69v-61.18c0-1.13-.11-2.03-.33-2.69-.22-.66-.68-1.38-1.38-2.16-1.14-1.31-1.79-2.14-1.96-2.49-.18-.35-.26-.87-.26-1.57,0-2.79,1.88-4.19,5.63-4.19h18.21c3.75,0,5.63,1.4,5.63,4.19,0,.7-.09,1.22-.26,1.57-.18.35-.83,1.18-1.96,2.49-.7.79-1.16,1.51-1.38,2.16-.22.65-.33,1.55-.33,2.69v57.11Z"/>
    <path class="st1" d="M619.59,65.08c10.39,0,18.38,5.81,23.97,17.42,2.27,4.45,4,9.39,5.17,14.8,1.18,5.42,1.77,10.87,1.77,16.37,0,6.55-.65,12.47-1.96,17.75-1.31,5.29-3.14,9.54-5.5,12.77-5.68,7.51-13.58,11.27-23.71,11.27-5.76,0-10.83-1.2-15.2-3.6-4.37-2.4-7.91-5.96-10.61-10.68-1.75-3.06-3.1-7.03-4.06-11.92-.96-4.89-1.44-10.09-1.44-15.59,0-6.37.85-12.77,2.55-19.19s4-11.9,6.88-16.44c5.33-8.65,12.71-12.97,22.14-12.97ZM619.2,77.65c-1.49,0-2.71.48-3.67,1.44s-1.73,2.69-2.29,5.17c-.57,2.49-.96,5.83-1.18,10.02-.22,4.19-.33,9.56-.33,16.11,0,5.85.11,11.2.33,16.05.22,4.85.59,8.32,1.11,10.41.35,1.75,1.07,3.17,2.16,4.26,1.09,1.09,2.33,1.64,3.73,1.64,1.57,0,2.92-.54,4.06-1.64,1.13-1.09,1.88-2.51,2.23-4.26.17-.96.35-2.34.52-4.13.17-1.79.33-3.82.46-6.09.13-2.27.24-4.72.33-7.34.09-2.62.13-5.24.13-7.86,0-6.81-.11-12.42-.33-16.83-.22-4.41-.61-7.86-1.18-10.35-.57-2.49-1.33-4.21-2.29-5.17-.96-.96-2.23-1.44-3.8-1.44Z"/>
  </g>
  <path class="st0" d="M12.25,102.75l208.86-42.35-1.37-6.92L10.85,95.84l1.4,6.91h0ZM116.71,45.63l-11.91,23.74.74,3.64,29.07-5.89-2.15-10.58-4.78.97c.31,1.54.02,6.98-7.1,8.42l-2.6.53,11.77-23.47-13.05,2.65h0ZM82.77,52.52l-11.91,23.74.74,3.64,29.07-5.89-2.15-10.58-4.78.97c.31,1.54.02,6.98-7.1,8.42l-2.6.53,11.77-23.47-13.05,2.65h0ZM48.51,80.54l.79,3.89,17.98-3.65-.79-3.89-3.23.66-4.82-23.79-13.87,2.81.8,3.88,2.83-.57,4.04,19.91-3.72.75h0ZM57.86,46.55c-.52-2.54-3.79-4.02-7.3-3.31-3.52.71-5.95,3.35-5.43,5.89.52,2.54,3.79,4.02,7.3,3.31s5.95-3.35,5.43-5.89ZM204.3,31.56c.17-.35.55-.98.8-1.36,1.18,1.42,3.17,2.16,5.21,1.74,2.88-.58,4.78-3.22,4.24-5.9-.54-2.67-3.32-4.37-6.2-3.78-5.42,1.1-7.4,6.99-7.4,6.99l-.86-4.23-13.54,2.75.79,3.88,4.67-.95,4.04,19.91-3.41.69.79,3.88,18.59-3.77-.79-3.88-4.78.97-2.42-11.94c-.43-2.12-.41-3.58.29-5.02h0ZM169.27,30.19c-8.97,1.82-14.57,8.49-12.63,18.06,1.92,9.48,10.32,13.41,19.86,11.48,6.78-1.38,10.35-5.6,12.1-9.26l-3.43-2.28c-1.32,2.54-3.96,5.82-9.01,6.85-3.81.77-7.18-.76-8.88-8.05l20.01-4.06c-2.15-9.82-9.18-14.54-18.03-12.74ZM166.61,43.08c-.63-5.43.49-8.84,3.49-9.45,3.26-.66,5.24,2.89,6.29,7.47,0,0-9.78,1.98-9.78,1.98ZM15.91,89.28c2.5-.51,5.64,1.24,12.44-.14,9.7-1.97,16.46-8.7,14.79-16.89-1.37-6.75-8.68-8.83-15.21-9.77-5.82-.84-11.35-1.09-12.07-4.66-.53-2.63,1.99-4.67,5.24-5.33,7.17-1.45,11.51,2.73,13.27,6.14l3.98-.81-2.43-11.97-3.1.63c-.13.84-.55,1.76-1.79,2.01-1.69.34-4.52-1.09-10.48.12-8.61,1.74-15.27,7.47-13.66,15.42,1.3,6.42,7.67,8.27,13.75,9.31,6.08,1.05,12,1.9,12.7,5.36.56,2.75-1.44,5.23-5.41,6.04-9.17,1.86-13.86-3.83-15.64-7.72l-5.04,1.02,2.9,14.3,4.28-.87c-.06-.89.17-1.95,1.48-2.21h0ZM69.47,35.46c6.6,3.81,21.64-1.74,22.9,4.5.86,4.24-5.45,7.3-21.7,10.6-1.16.23-2.22.37-3.16.45l1.89,9.33,4.34-.88c-.28-3.91,1.92-5.91,7.88-7.84,6.95-2.26,23.28-6.41,21.58-14.76-2.16-10.67-26.3-2.44-27.79-9.78-1.2-5.9,12.36-11.85,25.77-14.92-3.26,1.69-7.09,4.18-6.23,8.38,2.01,9.91,27.39,2.59,29.16,11.36.95,4.7-6.3,9.12-18.83,11.66-1.29.26-2.49.46-3.59.62l1.87,9.24,4.42-.9c-.11-3.62,1.52-5.28,4.33-6.58,3.37-1.56,23.29-6.81,22.02-16.5l2.16-.44,6.57,32.39-3.72.75.79,3.89,18.48-3.75-.79-3.89-3.73.75-7.34-36.17-13.97,2.84c-6.35-7.76-29.2-2.56-30.51-9-.62-3.07,3.59-4.69,7.81-5.55,15.98-3.24,28.47,3.53,33.39,9.21l2.89-.59,63.89-12.96-1.39-6.92-60.05,12.18c-7.94-3.68-23.99-8.22-47.05-3.54-22.76,4.61-34.28,12.58-35.44,20.25L0,42.35l1.4,6.91s68.06-13.8,68.06-13.8Z"/>
</svg>