<?xml version="1.0" encoding="UTF-8"?>
<svg id="MAROON" xmlns="http://www.w3.org/2000/svg" viewBox="0 0 512.27 201.1">
  <defs>
    <style>
      .cls-1 {
        fill: #81000c;
      }
    </style>
  </defs>
  <path class="cls-1" d="M479.9,28.31c-6.82.72-11.79,6.85-11.07,13.67.72,6.82,6.85,11.79,13.67,11.07,6.82-.72,11.79-6.85,11.07-13.67-.72-6.82-6.85-11.79-13.67-11.07ZM482.31,51.24c-5.82.61-11.06-3.63-11.67-9.45-.61-5.82,3.63-11.06,9.45-11.67,5.82-.61,11.06,3.63,11.67,9.45.61,5.82-3.63,11.06-9.45,11.67ZM486.79,43.12c-.05-.5-.16-.9-.32-1.22-.16-.32-.35-.57-.57-.76-.22-.19-.44-.32-.67-.39-.23-.07-.45-.11-.65-.11v-.03c.1-.05.27-.14.49-.27.23-.13.45-.33.66-.6.22-.27.4-.61.54-1.02.14-.41.18-.92.11-1.53-.11-1.07-.56-1.88-1.34-2.4-.78-.53-1.88-.72-3.31-.57l-6.2.65,1.33,12.65,2.27-.24-.55-5.21,3.35-.35c.52-.05.96-.03,1.3.06.35.1.63.27.86.53.22.26.39.59.51,1,.12.41.21.91.27,1.49.03.31.08.62.14.95.07.33.2.62.4.87l2.44-.26c-.27-.23-.49-.65-.67-1.25-.18-.6-.31-1.27-.38-2.01ZM483.75,39.33c-.34.38-.87.6-1.6.68l-3.73.39-.42-3.95,3.69-.39c.29-.03.58-.04.85-.02.28.02.53.09.76.21.23.12.41.3.56.54.15.24.24.56.29.96.07.67-.06,1.2-.4,1.58Z"/>
  <path class="cls-1" d="M15.11,201.1l497.16-52.25-1.66-16.46L13.38,184.65l1.73,16.46ZM271.79,91.05l-33.11,52.77.91,8.67,69.2-7.27-2.65-25.19-11.38,1.2c.39,3.67-1.51,16.3-18.45,18.08l-6.18.65,32.73-52.17-31.07,3.27ZM191,99.54l-33.11,52.77.91,8.67,69.2-7.27-2.65-25.19-11.38,1.2c.39,3.67-1.51,16.3-18.45,18.08l-6.18.65,32.73-52.17-31.07,3.27ZM104.74,157.33l.97,9.25,42.8-4.5-.97-9.25-7.69.81-5.95-56.64-33.01,3.47.99,9.24,6.73-.71,4.98,47.4-8.85.93ZM134.16,80.04c-.64-6.05-7.94-10.24-16.3-9.36-8.37.88-14.64,6.49-14,12.54.64,6.05,7.94,10.24,16.3,9.36s14.64-6.49,14-12.54ZM479.47,77.75c.47-.77,1.51-2.17,2.17-2.99,2.43,3.57,6.91,5.74,11.78,5.22,6.86-.72,11.88-6.46,11.21-12.83-.67-6.36-6.77-10.94-13.63-10.22-12.9,1.36-18.85,14.68-18.85,14.68l-1.06-10.06-32.24,3.39.97,9.24,11.11-1.17,4.98,47.4-8.12.85.97,9.24,44.25-4.65-.97-9.24-11.38,1.2-2.98-28.43c-.53-5.04-.16-8.44,1.79-11.65ZM397.97,66.72c-21.35,2.24-35.91,16.57-33.52,39.36,2.37,22.57,21.11,33.62,43.82,31.24,16.15-1.7,25.41-10.76,30.33-18.92l-7.51-6.08c-3.65,5.63-10.54,12.71-22.56,13.98-9.07.95-16.6-3.37-18.93-20.79l47.63-5.01c-2.83-23.41-18.19-36-39.26-33.78ZM388.88,96.24c-.25-12.81,3.12-20.54,10.25-21.29,7.76-.82,11.6,7.93,13.03,18.84l-23.28,2.45ZM26.66,170.46c5.96-.63,12.89,4.16,29.07,2.46,23.09-2.43,40.37-16.63,38.32-36.13-1.69-16.07-18.29-22.55-33.34-26.21-13.4-3.26-26.25-5.08-27.15-13.57-.66-6.25,5.69-10.46,13.42-11.27,17.07-1.79,26.27,8.94,29.61,17.3l9.48-1-3-28.5-7.37.78c-.48,1.93-1.68,3.99-4.62,4.3-4.02.42-10.31-3.55-24.51-2.06-20.5,2.15-37.33,14.03-35.34,32.96,1.61,15.29,16.06,21.02,30.03,24.82,13.96,3.8,27.59,7.11,28.46,15.35.69,6.54-4.53,11.9-13.99,12.89-21.83,2.29-31.51-12.05-34.79-21.51l-12,1.26,3.58,34.04,10.19-1.07c.06-2.1.83-4.51,3.96-4.84ZM163.75,56.74c14.56,10.37,50.92.76,52.48,15.62,1.06,10.09-14.36,15.84-53.05,19.91-2.75.29-5.26.37-7.49.34l2.33,22.21,10.33-1.09c.22-9.2,5.81-13.36,20.15-16.55,16.74-3.72,55.79-9.76,53.7-29.65-2.67-25.39-60.87-11.57-62.7-29.05-1.48-14.04,31.52-24.92,63.52-29.09-7.98,3.22-17.48,8.17-16.42,18.18,2.48,23.59,63.37,12.16,65.56,33.04,1.18,11.19-16.75,19.88-46.57,23.01-3.06.32-5.92.52-8.53.65l2.31,21.99,10.53-1.11c.54-8.47,4.74-12,11.58-14.4,8.21-2.88,55.9-10.71,55.11-33.61l5.15-.54,8.1,77.09-8.85.93.97,9.25,43.98-4.62-.97-9.25-8.87.93-9.05-86.1-33.26,3.5c-13.1-19.55-67.62-12.49-69.23-27.84-.77-7.3,9.42-10.16,19.47-11.22,38.04-4,65.7,14.61,75.92,28.97l6.89-.72,152.09-15.98-1.71-16.46-142.94,15.02c-17.73-10.36-54.18-24.55-109.08-18.78-54.17,5.69-82.85,21.73-87.29,39.38L0,57.31l1.73,16.46,162.02-17.03Z"/>
</svg>